<svg width="129" height="119" viewBox="0 0 129 119" fill="none" xmlns="http://www.w3.org/2000/svg">
<g clip-path="url(#clip0)">
<path fill-rule="evenodd" clip-rule="evenodd" d="M29.3372 32.4741C27.7971 31.4243 26.017 30.2145 25.0369 29.5846L24.9369 29.5246L24.8369 29.4646L24.7369 29.4046L24.6369 29.3446L24.5369 29.2846L24.4369 29.2246L24.3369 29.1546L24.2368 29.0847L24.1368 29.0147L24.0368 28.9447L23.9368 28.8747L23.8368 28.8047L23.7368 28.7347L23.6768 28.6647L23.5768 28.5947L23.4768 28.5247L23.3768 28.4548L23.2768 28.3848L23.1768 28.3148L23.0768 28.2448L22.9767 28.1748L22.8767 28.1048L22.7767 28.0248L22.6767 27.9448L22.5767 27.8649L22.4767 27.7849L22.3767 27.7049L22.2767 27.6249L22.1767 27.5449L22.0767 27.4649L21.9767 27.3849L21.8767 27.3049L21.7767 27.225L21.6766 27.145L21.5766 27.065L21.4766 26.985L21.3766 26.895L21.2766 26.815L21.1766 26.735L21.0766 26.6451L20.9766 26.5551L20.8766 26.4651L20.7766 26.3751L20.6766 26.2851L20.5766 26.1951L20.4765 26.1052L20.3765 26.0152L20.2765 25.9252L20.1765 25.8352L20.0765 25.7452L19.9865 25.6552L19.8965 25.5652L19.8065 25.4753L19.7165 25.3853L19.6265 25.2953L19.5365 25.2053L19.4465 25.1153L19.3765 25.0053L19.2865 24.9053L19.1965 24.8054L19.1064 24.7054L19.0164 24.6054L18.9264 24.5054L18.8364 24.4054C17.8363 23.2656 16.9563 22.0158 16.3262 20.6761L9.35568 15.4469C8.59562 16.1968 8.03557 17.0667 7.66554 18.0265C7.22551 19.1863 7.0655 20.4661 7.18551 21.7959V21.8159C7.40552 23.7255 8.68562 24.9253 9.76571 25.9452L9.79571 25.9752C9.82571 25.8252 9.86572 25.6752 9.90572 25.5252L9.91572 25.4953C10.2657 24.2155 10.9258 23.0257 11.9159 21.9958C12.1659 21.7359 12.5659 21.7059 12.846 21.9158L29.1872 32.884C29.2372 32.764 29.2872 32.6241 29.3372 32.4741ZM66.0801 82.5658V86.5551C65.4601 88.6947 65.1301 90.9944 65.1301 93.394C65.1301 93.7839 64.81 94.1038 64.42 94.1038H64.4H64.38H64.36H64.34H64.32H64.3H64.28H64.26H64.24H64.22H64.2H64.18L64.15 94.0938L64.13 94.0838L64.11 94.0738L64.09 94.0639L64.07 94.0538L64.05 94.0438L64.03 94.0339L64.02 94.0238L64.01 94.0139L64 94.0039L63.99 93.9939L63.98 93.9839L63.97 93.9739L63.96 93.9639L63.95 93.9539L63.94 93.9439L63.93 93.9339L63.92 93.9239L63.91 93.9139L63.9 93.9039L63.89 93.8939L63.88 93.8839L63.87 93.8739L63.86 93.8639L63.85 93.8539L63.84 93.8439L63.83 93.8339L63.82 93.8239L63.81 93.8139L63.8 93.8039L63.79 93.7939L63.78 93.7839L63.77 93.7639L63.7599 93.7339L63.75 93.7139L63.74 93.6939L63.7299 93.6639V93.6439L63.7199 93.6139V93.5939V93.5739V93.5539V93.5339V93.5139V93.4939V93.474V93.4539V93.4339V93.324V93.214V93.204V93.104V92.994V92.964V92.884V92.7741V92.7341V92.6641V92.5541V92.5041V92.4441V92.3341C63.7199 92.2241 63.7099 92.1142 63.6999 92.0042L63.6899 91.8942L63.6799 91.8042V91.7842L63.6499 91.6542L63.6299 91.4343L63.6199 91.3243L63.6099 91.2143L63.5999 91.1043V91.0843L63.5899 90.9944L63.5799 90.8844L63.5699 90.7744L63.5599 90.6644L63.5199 90.3445L63.5099 90.2345C63.4799 90.0245 63.4499 89.8146 63.4199 89.6046L63.3999 89.5046L63.3799 89.4046L63.3499 89.1946L63.3299 89.0947L63.2699 88.7847L63.2499 88.6847L63.1899 88.3748L63.1699 88.2748C63.0699 87.7949 62.9599 87.325 62.8299 86.8651L62.7999 86.7651L62.7699 86.6651C62.0998 84.3055 61.0897 82.1558 59.8096 80.3161C57.5495 77.0567 54.4492 74.7671 50.9089 74.0372C50.1789 76.9767 49.7288 80.2361 49.7288 83.4556C49.7288 87.385 50.3889 91.2343 52.019 94.3438C53.6192 97.4033 56.1594 99.7529 59.9396 100.763C60.8097 100.993 61.7498 101.153 62.7699 101.243H62.7899H62.8099H62.8199H62.8299H62.8499H62.8799H62.8899H62.9099H62.9299H62.9599H62.9699H62.9899H63.0199H63.0399H63.0499H63.0699H63.0899H63.1099H63.1299H63.1599H63.1899H63.2099H63.2399H63.2599H63.2899H63.3199H63.3399H63.3699H63.3999H63.4199H63.4499H63.4799H63.4999H63.5099H63.5399H63.5699H63.5899H63.5999H63.6299H63.6599H63.6799H63.6899H63.7199H63.75H63.77H63.78H63.81H63.84H63.85H63.86H63.89H63.92H63.93H63.94H63.97H64H64.01H64.03H64.06H64.09H64.1H64.12H64.15H64.18H64.19H64.21H64.24H64.27H64.28H64.3H64.33H64.36H64.38H64.41H64.44H64.46H64.49H64.52C65.09 101.243 65.6501 101.223 66.1801 101.173V102.652C65.6401 102.692 65.09 102.712 64.52 102.712H64.49H64.47H64.44H64.42H64.41H64.38H64.37H64.36H64.33H64.32H64.3H64.27H64.25H64.23H64.2H64.18H64.08H64.05H64.04H64.03H64H63.99H63.97H63.94H63.92H63.9H63.87H63.85H63.84H63.81H63.8H63.79H63.7599H63.75H63.7299H63.6999H63.6899H63.6699H63.6399H63.5899H63.5599H63.5099H63.4999H63.4899H63.4599H63.4499H63.4299H63.3999H63.3799H63.3299H63.3099H63.2999H63.2699H63.2599H63.2199H63.2099H63.1899H63.1199H63.0899H63.0399H63.0199H62.9899H62.9799H62.9699H62.9499H62.9399H62.9199H62.8899H62.8699H62.8499H62.8299H62.8099H62.7999H62.7799H62.7699H62.7599C62.3298 102.682 61.9098 102.632 61.5098 102.572C61.4598 102.772 61.4098 102.972 61.3598 103.172C59.9797 108.691 59.0196 115.56 64.4 117.05V118.49C64.34 118.49 64.29 118.48 64.23 118.47C62.6399 118.07 61.4798 117.35 60.6497 116.38C60.1297 116.73 59.5596 117.01 58.9196 117.19C58.2595 117.38 57.5295 117.48 56.7294 117.47C56.6094 117.47 56.4894 117.44 56.3694 117.38C55.6593 116.99 55.0693 116.53 54.5892 116.03C54.1292 115.55 53.7692 115.02 53.4991 114.46C52.2991 114.88 50.9289 114.93 49.3588 114.48C49.2488 114.45 49.1488 114.39 49.0588 114.31C47.9787 113.261 47.3487 112.151 47.0686 111.011C46.5686 110.981 46.0186 110.881 45.4785 110.721L45.4385 110.711C44.6084 110.471 43.7484 110.111 43.0483 109.691C42.9483 109.631 42.8583 109.551 42.7983 109.441C42.4083 108.791 42.1383 107.972 41.9682 107.162C41.8382 106.512 41.7682 105.842 41.7582 105.272C40.5581 105.082 39.358 104.522 38.2079 103.452C38.1279 103.372 38.0579 103.282 38.0179 103.162C36.6478 99.263 38.548 96.4734 41.5682 94.4038C41.3582 94.2738 41.1482 94.1338 40.9482 93.9839C40.6681 94.1938 40.3881 94.3938 40.0881 94.5837C38.868 95.3636 37.5079 95.9435 36.1178 96.2535L36.0078 96.2735C34.4477 96.3935 32.9375 96.1735 31.5774 95.6136C30.2473 95.0737 29.0672 94.2138 28.1072 93.024C27.8971 92.7641 27.8971 92.3941 28.0972 92.1442L30.7374 88.7447C30.2973 88.4748 29.8773 88.1748 29.4873 87.8249C27.4371 88.5448 24.6469 89.1847 23.0268 88.9247L22.9567 88.9147C21.4366 88.5648 20.0565 87.9249 18.9264 87.005C17.8163 86.1052 16.9363 84.9354 16.3562 83.5256C16.2262 83.2056 16.3462 82.8357 16.6362 82.6557L20.9866 79.9062C20.6866 79.6662 20.3965 79.4163 20.1265 79.1463C19.9065 78.9264 19.6965 78.6864 19.5065 78.4364C19.2965 78.5264 19.0664 78.6064 18.8264 78.6664C17.0563 79.1663 14.5561 79.1463 12.8159 78.3465L12.7559 78.3165C11.3658 77.6166 10.1957 76.6667 9.32568 75.5069L9.29567 75.4669C8.45561 74.3271 7.88556 72.9973 7.66554 71.5076C7.61554 71.1577 7.82556 70.8377 8.14558 70.7377C8.76563 70.5378 10.3158 69.8479 12.0859 69.068L13.196 68.5781C12.866 68.1881 12.5659 67.7782 12.3159 67.3383C9.6157 67.2883 7.00549 66.7784 5.34536 65.4186L5.29536 65.3686C4.13527 64.3288 3.2552 63.099 2.72516 61.7392C2.19511 60.4094 1.9951 58.9597 2.17511 57.4499C2.21512 57.09 2.52514 56.82 2.88517 56.83C3.94525 56.78 6.30544 56.6701 9.07566 56.5601C8.56562 55.8202 8.16558 55.0303 7.90556 54.2005C5.69539 53.6206 3.2352 52.7307 1.93509 51.121L1.91509 51.101C0.98502 49.8312 0.374971 48.4414 0.124952 46.9917C-0.115067 45.5819 -0.015059 44.1222 0.47498 42.6824C0.594989 42.3324 0.945016 42.1425 1.29504 42.2225C2.50514 42.4124 4.84532 42.7424 7.69555 43.1323C7.44553 42.5624 7.25551 41.9825 7.1255 41.4026C4.82532 40.1528 2.74516 38.4631 1.78508 36.2135L1.76508 36.1735C1.23504 34.6937 1.04502 33.184 1.21504 31.7242C1.38505 30.3044 1.89509 28.9347 2.78516 27.6849C2.97518 27.4149 3.3352 27.3149 3.63523 27.4449L9.90572 30.0545L9.83571 29.8745L9.80571 29.7745C9.6757 29.1246 9.6057 28.4648 9.6057 27.8249C9.36568 27.5749 9.08566 27.305 8.79563 27.025C7.53553 25.8452 6.04542 24.4454 5.77539 22.0158V21.9658C5.63538 20.4161 5.8154 18.9163 6.33544 17.5666C6.84548 16.2368 7.68554 15.037 8.84564 14.0372C9.10566 13.8172 9.46569 13.8172 9.72571 14.0072L15.4862 18.3264C15.3762 17.8565 15.3061 17.3666 15.2661 16.8767C15.2661 16.8267 15.2661 16.7867 15.2661 16.7367C15.2861 16.5367 15.3061 16.3368 15.3261 16.1368C15.1761 15.8269 14.9961 15.4869 14.8061 15.137C13.956 13.5672 12.936 11.6875 13.106 9.10798C13.106 9.05799 13.116 9.008 13.136 8.958C13.456 7.43826 14.066 6.05849 14.9561 4.91868C15.8362 3.78886 16.9763 2.88901 18.3864 2.27912C18.6664 2.15914 18.9964 2.23912 19.1865 2.45909L23.4068 7.1583C23.4268 6.70838 23.4768 6.26845 23.5568 5.81853L23.5868 5.71854C24.0568 4.32877 24.7969 3.10898 25.767 2.12914C26.717 1.1893 27.8871 0.479414 29.2672 0.0794804C29.5973 -0.020503 29.9473 0.139469 30.0973 0.449418L39.408 19.3563C39.548 19.6462 39.478 19.9862 39.248 20.1861C38.428 20.946 37.6479 21.7259 36.9178 22.5457C36.4978 23.0157 36.0878 23.4956 35.6977 23.9855C35.6677 24.0255 35.6377 24.0655 35.6077 24.1055L35.5977 24.1155C35.3477 24.4254 35.1077 24.7454 34.8677 25.0753L34.7077 25.2953C34.4176 25.6952 34.1376 26.1151 33.8576 26.5451L33.8376 26.5851C33.2376 27.5149 32.6875 28.4748 32.1775 29.4646C31.8774 30.0645 31.5874 30.6644 31.3274 31.2843L31.3174 31.3043V31.3143L31.3074 31.3443V31.3543L31.2974 31.3743L31.2874 31.4043L31.2774 31.4343L31.2674 31.4543V31.4643L31.2474 31.5242L31.2374 31.5542V31.5642L31.2274 31.5842C31.0574 31.9942 30.8974 32.4041 30.7474 32.814C30.5873 33.244 30.4373 33.6839 30.3073 34.1138L30.2773 34.0938C30.2773 34.1638 30.2673 34.2238 30.2473 34.2938C29.9173 35.3536 29.6473 36.4334 29.4373 37.5432C29.2372 38.5731 29.0972 39.6129 29.0072 40.6727L28.9872 40.9827C28.9472 41.5126 28.9172 42.0525 28.9072 42.6024V42.6224L28.8972 43.2423V43.2923C28.8972 44.3121 28.9472 45.312 29.0472 46.2818C29.1472 47.3016 29.3072 48.3015 29.5073 49.2913V49.3113L29.5473 49.5113C29.9073 51.221 30.3173 52.6007 30.9674 54.2705L30.9774 54.3105C31.3774 55.3303 31.8374 56.3301 32.3475 57.32C32.3875 57.3999 32.4075 57.4799 32.4175 57.5599L32.4675 57.5399L32.5275 57.6599C32.7475 58.0698 32.9775 58.4798 33.2176 58.8797V58.8897C33.2276 58.9097 33.2476 58.9397 33.2576 58.9597L33.2876 59.0097C33.8276 59.9095 34.4276 60.7994 35.0777 61.6692C35.7478 62.5691 36.4578 63.4289 37.1979 64.2388C37.2679 64.3088 37.3079 64.3888 37.3379 64.4788L37.3879 64.4488C37.5979 64.6787 37.8179 64.8987 38.0279 65.1187C38.328 65.4286 38.638 65.7286 38.948 66.0185C39.478 66.5184 40.0281 66.9983 40.5981 67.4683C41.2982 68.0382 42.0182 68.5881 42.7483 69.108C43.3583 69.5979 44.5084 70.3478 45.1585 70.7877C46.0786 71.3676 47.0086 71.9075 47.9487 72.3875C48.5088 72.6774 49.0788 72.9474 49.6688 73.2073L49.6988 73.0873C49.7689 72.8374 49.9589 72.6474 50.1989 72.5874C53.8992 71.5976 57.6995 71.0077 61.5098 70.8077H61.5498H61.5898H61.6298H61.6698H61.7098H61.7498H61.7998H61.8398H61.8798H61.9198H62.0098H62.0498H62.0898H62.1298H62.1698H62.2098H62.2498H62.2998H62.3398H62.3798H62.4299H62.4698H62.5098H62.5499H62.5899H62.6299H62.6599H62.6699H62.6799H62.7099H62.7199H62.7299H62.7599H62.7799H62.7999H62.8299H62.8499H62.8599H62.8899H62.8999H62.9199H62.9499H62.9699H62.9899H63.0199H63.0399H63.0499H63.0799H63.0899H63.1099H63.1399H63.1599H63.1799H63.2099H63.2299H63.2399H63.2699H63.2799H63.2899H63.3199H63.3399H63.3599H63.3899H63.4099H63.4199H63.4499H63.4599H63.4699H63.4999H63.5099H63.5299H63.5499H63.5799H63.5999H63.6099H63.6399H63.6499H63.6599H63.6899H63.6999H63.7199H63.75H63.78H63.8H63.81H63.84H63.85H63.86H63.89H63.9H63.92H63.95H63.97H63.99H64H64.03H64.04H64.05H64.08H64.09H64.11H64.14H64.16H64.18H64.21H64.22H64.23H64.26H64.27H64.29H64.32H64.34H64.36H64.39H64.41H64.42H64.45H64.46H64.48H64.51H64.53H64.55H64.58H64.6H64.61H64.64H64.65H64.67H64.7H64.72H64.74H64.77H64.78H64.79H64.82H64.83H64.85H64.88H64.9H64.92H64.95H64.96H64.97H65H65.01H65.0301H65.0601H65.08H65.1001H65.1301H65.1401H65.1501H65.1801H65.1901H65.2101H65.2401H65.2601H65.2801H65.2901H65.3201H65.3301H65.3401H65.3701H65.3801H65.4001H65.4501H65.4701H65.4801H65.5101H65.5201H65.5301H65.5601H65.5701H65.5901H65.6201H65.6401H65.6601H65.6701H65.7001H65.7101H65.7201H65.7501H65.7601H65.7801H65.8101H65.8401H65.8601H65.8701H65.9201H65.9501H65.9601H65.9801H66.0501H66.0601H66.0901C66.5002 70.8177 66.9102 70.8377 67.3202 70.8577V72.2775C66.8802 72.2575 66.4502 72.2375 66.0101 72.2275H65.9701H65.9601H65.8801H65.8701H65.8501H65.8201H65.7901H65.7701H65.7601H65.7201H65.7101H65.6801H65.6701H65.6501H65.6201H65.5901H65.5701H65.5601H65.5301H65.5201H65.5101H65.4801H65.4701H65.4501H65.4301H65.4001H65.3801H65.3701H65.3401H65.3301H65.3201H65.2701H65.2501H65.2201H65.2001H65.1901H65.1601H65.1501H65.1401H65.1101H65.1001H65.08H65.0601H65.0301H65.01H65H64.97H64.96H64.95H64.9H64.88H64.85H64.83H64.82H64.79H64.78H64.77H64.74H64.72H64.7H64.67H64.65H64.68H64.65H64.64H64.62H64.59H64.58H64.56H64.53H64.51H64.5H64.48H64.47H64.45H64.42H64.4H64.38H64.35H64.33H64.32H64.29H64.28H64.27H64.24H64.22H64.2H64.17H64.15H64.14H64.11H64.1H64.09H64.07H64.06H64.04H64.02H63.99H63.97H63.96H63.93H63.92H63.91H63.89H63.88H63.87H63.85H63.82H63.79H63.77H63.78H63.75H63.74H63.7299H63.7099H63.6999H63.6899H63.6699H63.6399H63.6199H63.5999H63.5899H63.5599H63.5499H63.5399H63.5299H63.5199H63.5099H63.4899H63.4599H63.4399H63.4199H63.3899H63.3799H63.3699H63.3599H63.3499H63.3399H63.3199H63.2899H63.2699H63.2499H63.2199H63.1999H63.1899H63.1799H63.1599H63.1499H63.1299H63.0999H63.0799H63.0599H63.0299H63.0099H62.9999H62.9799H62.9699H62.9499H62.9199H62.8999H62.8799H62.8499H62.8299H62.8199H62.7999H62.7899H62.7799H62.7499H62.7099H62.6699H62.6599H62.6199H62.5699H62.5299H62.4899H62.4498H62.4098H62.3698H62.3298H62.2798H62.2398H62.1998H62.1598H62.1498H62.0998H62.0598H62.0198H61.9798H61.9698H61.9198H61.8798H61.8398H61.8098H61.7998H61.7598H61.7198H61.6798H61.6498H61.6298H61.5898C58.7996 72.3774 56.0293 72.7374 53.3091 73.3173C56.3594 74.4571 59.0196 76.6667 61.0397 79.5863C61.8098 80.6961 62.4799 81.8959 63.0499 83.1857L63.0699 83.2257L63.0799 83.2556L63.1099 83.3256L63.1399 83.3956L63.1699 83.4656L63.2299 83.6056L63.2599 83.6756L63.3499 83.8855L63.3799 83.9555C63.4399 84.0955 63.4899 84.2455 63.5499 84.3855L63.5799 84.4554L63.5899 84.4754L63.6099 84.5354C63.81 85.0653 63.99 85.6052 64.15 86.1652V86.1752L64.17 86.2451L64.19 86.3251L64.21 86.4051L64.22 86.4551L64.23 86.4851L64.25 86.5651L64.27 86.6451L64.29 86.7251L64.35 86.955L64.36 87.005L64.37 87.025L64.39 87.105L64.4 87.145L64.41 87.185L64.38 87.155L64.42 87.305C64.82 85.6352 65.3801 84.0455 66.0801 82.5658ZM54.7992 113.791C55.0093 114.22 55.2893 114.63 55.6393 115C55.9893 115.37 56.4194 115.7 56.9294 116C57.5295 116 58.0595 115.92 58.5495 115.78C59.0496 115.64 59.4896 115.42 59.8796 115.15C58.8896 113.281 58.7396 110.851 58.9796 108.331C57.9395 110.651 56.5894 112.671 54.7992 113.791ZM51.219 100.803C48.7488 103.122 45.9686 105.082 43.1983 105.282C43.2083 105.752 43.2683 106.292 43.3783 106.832C43.4984 107.442 43.6884 108.032 43.9484 108.521C44.5084 108.841 45.1885 109.111 45.8485 109.301L45.8785 109.311C46.2386 109.411 46.5986 109.491 46.9186 109.531C46.9286 106.592 48.8888 103.522 51.219 100.803ZM43.1083 95.0837C40.2181 96.8734 38.278 99.243 39.328 102.492C43.4784 106.122 48.6188 101.693 52.4491 97.5433C51.819 96.7634 51.259 95.9035 50.7889 94.9937C50.6389 94.7037 50.4889 94.3938 50.3489 94.0938C49.6288 94.5838 48.8588 95.0037 48.0287 95.3036C47.9887 95.3236 47.9387 95.3336 47.8987 95.3336C46.4686 95.6236 45.0585 95.6036 43.7384 95.2636C43.5284 95.2137 43.3183 95.1537 43.1083 95.0837ZM54.3592 99.473L54.2592 99.5829C50.3089 103.672 46.0386 109.141 49.9489 113.121C55.3493 114.52 57.9495 108.092 59.5196 102.622L59.6596 102.143L59.6096 102.132C57.5295 101.573 55.7993 100.663 54.3592 99.473ZM55.6093 88.1748C54.9393 88.1748 54.3292 87.9049 53.8892 87.4649L53.8592 87.4349C53.4391 86.995 53.1791 86.4051 53.1791 85.7452C53.1791 85.0753 53.4491 84.4654 53.8892 84.0255C54.3292 83.5856 54.9393 83.3156 55.6093 83.3156C55.9993 83.3156 56.3194 82.9957 56.3194 82.6058C56.3194 82.2158 55.9993 81.8959 55.6093 81.8959C54.5492 81.8959 53.5792 82.3258 52.8891 83.0257C52.189 83.7256 51.759 84.6854 51.759 85.7452C51.759 86.785 52.169 87.7249 52.8491 88.4248L52.8891 88.4648C53.5892 89.1647 54.5492 89.5946 55.6093 89.5946C55.9993 89.5946 56.3194 89.2746 56.3194 88.8847C56.3194 88.4948 55.9993 88.1748 55.6093 88.1748ZM49.8389 92.8241C48.7888 89.9545 48.3387 86.7151 48.3387 83.4456C48.3387 83.0957 48.3487 82.7457 48.3587 82.3958L41.6082 92.6541C41.7782 92.7741 41.9382 92.884 42.0983 92.994L42.0882 93.004C42.4383 93.234 42.7983 93.4239 43.1683 93.5839C44.1484 94.0338 45.1185 94.2038 46.3586 94.1138C46.7686 94.0938 47.1786 94.0439 47.5887 93.9539C48.3887 93.6639 49.1388 93.284 49.8389 92.8241ZM48.5388 79.5463C48.5688 79.2263 48.6088 78.9064 48.6488 78.5864C48.2687 79.1663 47.9287 79.6862 47.6887 80.0662C46.3986 82.1058 44.6684 84.4354 42.5683 86.3151C40.4181 88.2348 37.8879 89.7046 35.0377 89.9545C34.9877 89.9545 34.9377 89.9545 34.8877 89.9545C33.8976 89.8845 32.9575 89.6846 32.0775 89.3446L29.6073 92.5141C30.3473 93.294 31.2074 93.8739 32.1475 94.2638C33.2876 94.7337 34.5577 94.9137 35.8978 94.8237C37.1179 94.5438 38.298 94.0338 39.368 93.354C39.5781 93.214 39.7881 93.074 39.9981 92.924C39.9581 92.7341 39.9981 92.5241 40.1281 92.3541L48.5388 79.5463ZM49.2188 75.187C49.2688 74.967 49.3088 74.7471 49.3588 74.5371C48.6788 74.2371 47.9987 73.9172 47.3387 73.5772C46.4886 73.1373 45.6685 72.6774 44.8685 72.1875L29.5273 85.7152C30.0973 86.4951 30.7974 87.115 31.5974 87.5749C32.5775 88.1448 33.7176 88.4648 34.9477 88.5548C37.4379 88.3248 39.6881 87.015 41.6182 85.2853C43.5984 83.5056 45.2485 81.286 46.4886 79.3363C47.0786 78.3765 48.2087 76.6867 49.2188 75.187ZM24.9169 8.978C24.7869 8.01816 24.7869 7.05832 24.9469 6.09848C25.3469 4.92867 25.967 3.90884 26.777 3.10898C27.4271 2.45908 28.2172 1.93917 29.1172 1.59923L37.9179 19.4862C37.2179 20.1561 36.5378 20.856 35.8878 21.5759C35.4377 22.0758 35.0077 22.5857 34.5977 23.1057L34.5677 23.1456L34.4376 23.3056L34.4176 23.3356L34.3776 23.3656L34.3576 23.3956L34.3076 23.4556L34.2876 23.4856L34.2676 23.5156L34.2076 23.4556L34.1476 23.3956L34.0876 23.3356L34.0276 23.2656L33.9676 23.1956L33.9076 23.1256L33.8476 23.0557L33.7876 22.9857L33.7276 22.9157L33.6676 22.8457L33.6076 22.7757L33.5476 22.7057L33.5076 22.6657L33.4476 22.5957L33.3876 22.5257L33.3276 22.4558L33.2676 22.3858L33.2076 22.3158L33.1475 22.2458L33.0875 22.1758L33.0275 22.1058L32.9675 22.0358L32.9075 21.9658L32.8475 21.8959L32.7875 21.8259L32.7275 21.7559L32.6675 21.6859L32.6375 21.6659L32.5775 21.5959L32.5175 21.5359L32.4575 21.4759L32.3975 21.4159L32.3375 21.3559L32.2775 21.2959L32.2175 21.236L32.1575 21.176L32.0975 21.116L32.0375 21.056L31.9875 20.996L31.9375 20.936L31.8874 20.876L31.8374 20.816L31.7874 20.756L31.7574 20.6661L31.7074 20.6061L31.6574 20.5461L31.6074 20.4861L31.5574 20.4261L31.5074 20.3661L31.4574 20.3061L31.4074 20.2561L31.3574 20.2061L31.3074 20.1561L31.2574 20.1061L31.2074 20.0562L31.1574 20.0062L31.1074 19.9562L31.0674 19.9062L31.0274 19.8562L30.9874 19.8062L30.9474 19.7562L30.9074 19.7062L30.8674 19.6562L30.8274 19.6162L30.7674 19.5562L30.7574 19.5362L30.7174 19.4862L30.6774 19.4663L30.6474 19.4363L30.6073 19.3863L30.5873 19.3663L30.5273 19.2963L30.4673 19.2263L30.4573 19.2063L30.4173 19.1563L30.3873 19.1263L30.3573 19.0963L30.3173 19.0463L30.2973 19.0263L30.1873 18.8964L30.1773 18.8864L30.1673 18.8664L30.1173 18.8164L30.0873 18.7864L30.0573 18.7464L30.0173 18.6964L29.9973 18.6764L29.9373 18.6064L29.8773 18.5364L29.8673 18.5164L29.8173 18.4664L29.7173 18.3464L29.6973 18.3264L29.6373 18.2565L29.5773 18.1865L29.5173 18.1165L29.4873 18.0865L29.4573 18.0465L29.4173 17.9965L29.3973 17.9765L29.2772 17.8265L29.2672 17.8065L29.2172 17.7465L29.1872 17.7165L29.1572 17.6765C28.4472 16.7767 27.7471 15.7969 27.1271 14.767C26.047 12.9673 25.1969 11.0077 24.9169 9.00799V8.978ZM18.0164 12.9373C18.4364 12.3474 18.9564 11.8275 19.5665 11.3876L20.1565 12.0675L20.1665 12.0775L20.1765 12.0875L32.3975 26.1951C31.8674 27.035 31.3874 27.8949 30.9374 28.7747C30.5473 29.5446 30.1873 30.3244 29.8673 31.1143C28.3872 30.1045 26.737 28.9847 25.817 28.3948L25.727 28.3348L25.637 28.2748L25.5469 28.2148L25.4569 28.1548L25.3669 28.0948L25.2769 28.0348L25.1869 27.9748L24.9069 27.7849L24.6269 27.5849L24.5369 27.5149L24.4469 27.4449L24.3569 27.3749L24.2668 27.3049L24.0768 27.165L23.8868 27.025L23.7868 26.955L23.6868 26.885L23.5868 26.815L23.4868 26.745L23.2968 26.5951L23.1968 26.5251L23.0968 26.4451L22.9067 26.2951L22.8067 26.2151L22.7067 26.1351L22.6167 26.0552L22.5267 25.9752L22.4367 25.8952L22.3467 25.8152L22.2567 25.7352L22.1267 25.6652L22.0367 25.5852L21.9467 25.5052L21.7567 25.3353L21.6666 25.2553L21.5766 25.1753L21.4866 25.0953L21.3966 25.0053L21.3066 24.9153L21.2166 24.8254L21.1266 24.7354L21.0366 24.6454L20.9466 24.5554L20.8566 24.4654L20.6766 24.2855L20.5866 24.1955L20.4966 24.1055L20.4065 24.0155L20.3165 23.9255L20.2265 23.8355L20.1465 23.7455L20.0665 23.6656L19.9865 23.5756L19.9065 23.4856C18.1964 21.5459 16.8963 19.2863 16.6863 16.7967C16.7063 16.5767 16.7263 16.3668 16.7563 16.1568C16.8063 15.9768 16.8663 15.7369 16.9263 15.4869C17.0163 15.127 17.1063 14.747 17.2163 14.4171C17.2863 14.2271 17.3663 14.0472 17.4563 13.8672L17.5263 13.7472C17.6963 13.4673 17.8563 13.1973 18.0164 12.9373ZM14.5261 9.20796C14.7961 7.90818 15.3161 6.73837 16.0762 5.75854C16.7163 4.93867 17.5263 4.25879 18.4964 3.75887L23.5568 9.38793C23.8968 11.5276 24.7869 13.5972 25.927 15.4869C26.697 16.7767 27.5871 17.9765 28.4772 19.0563L28.4872 19.0763L28.7072 19.3363L28.7372 19.3763L28.7872 19.4363L28.7972 19.4563L28.8572 19.5262L28.9172 19.5962L28.9372 19.6162L28.9872 19.6662L29.0172 19.7062L29.1772 19.8862L29.2372 19.9562L29.2572 19.9762L29.3072 20.0262L29.3372 20.0662L29.3673 20.0961L29.4173 20.1461L29.4373 20.1661L29.4973 20.2361L29.5573 20.3061L29.5773 20.3261L29.6273 20.3761L29.6573 20.4061L29.6873 20.4361L29.7373 20.4861L29.7573 20.5061L29.8173 20.5761L29.8573 20.6161L29.8973 20.6561L29.9373 20.696L29.9773 20.736L29.9873 20.746L30.0173 20.786L30.0273 20.796L30.0573 20.836L30.0673 20.846L30.0973 20.886L30.1073 20.896L30.1373 20.936L30.1473 20.946L30.1773 20.986L30.1873 20.996L30.2173 21.036L30.2273 21.056L30.2573 21.096L30.2773 21.116L30.3073 21.146L30.3273 21.166L30.3573 21.196L30.3773 21.216V21.246L30.3973 21.266L30.4273 21.2959L30.4473 21.3259L30.4773 21.3559L30.5073 21.3859L30.5373 21.4159L30.5673 21.4459L30.5873 21.4759L30.6173 21.5059L30.6373 21.5359L30.6674 21.5759L30.6874 21.5959L30.7174 21.6359L30.7374 21.6559L30.7774 21.6959L30.7974 21.7159L30.8374 21.7559L30.8574 21.7759L30.8974 21.8259L30.9174 21.8459L31.0174 21.9658L31.0274 21.9758L31.0774 22.0258L31.0874 22.0358L31.1374 22.0958L31.1474 22.1058L31.1974 22.1658L31.2074 22.1758L31.2574 22.2358V22.2458L31.3174 22.3158L31.3774 22.3758L31.4374 22.4458L31.4974 22.5157L31.5574 22.5857V22.5957L31.6174 22.6657H31.6374L31.6974 22.7257L31.7074 22.7357L31.7574 22.7957L31.7674 22.8057L31.8174 22.8657L31.8274 22.8757L31.8774 22.9357L31.8874 22.9557L31.9375 23.0157L31.9575 23.0357L32.0075 23.0857L32.0275 23.1057L32.0675 23.1556L32.0875 23.1756L32.1275 23.2256L32.1475 23.2556L32.1875 23.3056L32.2175 23.3356L32.2575 23.3756L32.3475 23.4856L32.3775 23.5256L32.4075 23.5656L32.4375 23.6056L32.4675 23.6456L32.4975 23.6756L32.5375 23.7156L32.5675 23.7455L32.6075 23.7855L32.6375 23.8155L32.6775 23.8655L32.6975 23.8955L32.7375 23.9455L32.7575 23.9755L32.7975 24.0255L32.8175 24.0455L32.8675 24.0955L32.8875 24.1155L32.9375 24.1655L32.9575 24.1855L33.0075 24.2455L33.0175 24.2655L33.0675 24.3254L33.0775 24.3354L33.1275 24.3954L33.1375 24.4054L33.1875 24.4654L33.1976 24.4754L33.2576 24.5354L33.2676 24.5454L33.3276 24.6154L33.3876 24.6854L33.1875 24.9653L29.9973 21.276L21.2466 11.1676L20.9566 10.8377C20.9466 10.8277 20.9366 10.8177 20.9266 10.8077L20.2365 10.0078C20.0165 9.75787 19.6365 9.68788 19.3365 9.86785C18.1064 10.6077 17.1563 11.5876 16.4762 12.7374C16.3862 12.8873 16.3062 13.0473 16.2262 13.2073C16.0962 13.4373 15.9862 13.6872 15.8962 13.9472L15.8562 14.0572C15.1361 12.7274 14.3961 11.1576 14.5261 9.20796ZM10.8858 31.9642C11.9759 33.6639 13.536 35.0637 15.2661 36.2035C17.6263 37.7632 20.3165 38.843 22.6067 39.5629C23.7868 39.9329 25.797 40.6327 27.5271 41.2226L27.5071 41.5726L8.77563 35.2336C8.45561 35.1236 8.09558 35.2536 7.92556 35.5636C7.23551 36.8134 6.91549 38.1432 6.91549 39.4929V39.6329C5.23535 38.5931 3.80524 37.2833 3.09518 35.6636C2.64515 34.3938 2.47514 33.104 2.62515 31.8642C2.74516 30.8544 3.07518 29.8645 3.63523 28.9547L10.8858 31.9642ZM8.77563 44.6721C5.77539 44.2621 3.17519 43.9022 1.64507 43.6722C1.37505 44.7021 1.34505 45.7319 1.51506 46.7317C1.72508 47.9615 2.25512 49.1513 3.05518 50.2411C3.98526 51.3809 5.7854 52.1108 7.56554 52.6307C7.45553 51.7009 7.51553 50.7511 7.74555 49.7812C7.82556 49.4413 8.13558 49.2213 8.47561 49.2413L28.3172 50.4611C28.2872 50.3211 28.2572 50.1911 28.2272 50.0512C26.307 49.9212 23.9968 49.7612 22.8467 49.7112C20.4265 49.6112 17.5463 49.2713 14.8761 48.3914C12.5559 47.6116 10.3858 46.4418 8.77563 44.6721ZM10.3258 57.8999C7.50553 58.0098 4.95533 58.1198 3.53522 58.1898C3.48522 59.2496 3.66523 60.2695 4.03526 61.1993C4.49529 62.3491 5.24535 63.3989 6.24543 64.2988C7.50553 65.3186 9.50569 65.7686 11.6659 65.8785C11.3858 65.0887 11.2358 64.2388 11.2158 63.349C11.2058 62.999 11.4558 62.7091 11.7859 62.6391L31.5474 58.7097L31.3574 58.3698C29.4073 58.7597 26.9971 59.2396 25.847 59.4996C23.4968 60.0295 20.6266 60.4594 17.8163 60.3095C15.1061 60.1695 12.4559 59.4996 10.3258 57.8999ZM36.9378 65.9185C36.7978 65.7785 36.6678 65.6386 36.5278 65.4986L36.3978 65.5586C34.6177 66.4284 32.3275 67.5483 31.1874 68.1482C29.0472 69.268 26.387 70.4078 23.6168 70.9777C20.7966 71.5576 17.8763 71.5576 15.2761 70.3378L15.1861 70.2878C14.8661 70.0778 14.5661 69.8579 14.2861 69.6179L12.6659 70.3278C11.2658 70.9477 9.99573 71.5076 9.18566 71.8375C9.41568 72.8674 9.84571 73.7872 10.4458 74.5971L10.4758 74.6371C11.2258 75.6269 12.2259 76.4368 13.416 77.0367L13.436 77.0467C14.8661 77.7066 16.9663 77.7066 18.4664 77.2866C18.5664 77.2566 18.6664 77.2266 18.7564 77.1967C18.4964 76.7067 18.2864 76.1768 18.1264 75.6069C18.0264 75.257 18.2164 74.897 18.5464 74.7571L36.9378 65.9185ZM43.6884 71.3376L43.4384 71.1777H43.4284L43.0083 71.5376C41.5182 72.8074 39.6281 74.4171 38.668 75.287C36.8778 76.8967 34.5777 78.6664 32.0475 79.9062C29.4573 81.176 26.627 81.8959 23.8168 81.366C23.7768 81.356 23.7268 81.346 23.6868 81.326C23.2068 81.156 22.7467 80.956 22.3167 80.7261L17.9364 83.4956C18.4164 84.4454 19.0664 85.2353 19.8465 85.8752C20.8066 86.6551 21.9767 87.205 23.2868 87.4949C24.5269 87.6849 26.687 87.225 28.4672 86.6451C28.2972 86.4251 28.1372 86.1852 27.9871 85.9452C27.8071 85.6452 27.8671 85.2653 28.1272 85.0453L43.6884 71.3376ZM42.0882 70.4578L42.1983 70.3678L41.9582 70.1878C41.1882 69.6479 40.4381 69.078 39.7181 68.4781C39.138 67.9982 38.558 67.4883 37.9979 66.9584L19.6565 75.7669C19.9965 76.6767 20.4966 77.4566 21.1466 78.1165C21.9467 78.9264 22.9567 79.5563 24.1168 79.9662C26.577 80.4161 29.0972 79.7662 31.4174 78.6264C33.8076 77.4566 35.9978 75.7669 37.7179 74.2171C38.668 73.3873 40.5781 71.7576 42.0882 70.4578ZM30.5373 66.8984C31.6474 66.3285 33.7976 65.2686 35.5477 64.4088C34.9877 63.7589 34.4577 63.099 33.9576 62.4391C33.3776 61.6592 32.8175 60.8494 32.2975 59.9995L12.6559 63.8989C12.7559 64.8587 13.056 65.7486 13.516 66.5484C14.086 67.5383 14.9061 68.3881 15.9362 69.078C18.2064 70.1278 20.8066 70.1178 23.3368 69.5879C25.947 69.058 28.4872 67.9582 30.5373 66.8984ZM25.5369 58.1198C26.747 57.8499 28.8672 57.4199 30.6774 57.06C30.3173 56.3101 29.9773 55.5402 29.6673 54.7504L29.6573 54.7204C29.2972 53.7905 28.9772 52.8507 28.7072 51.8909L9.01565 50.6811C8.86564 51.6309 8.92564 52.5708 9.17566 53.4606C9.47569 54.5604 10.0457 55.5902 10.8558 56.5201C12.7859 58.1198 15.3061 58.7697 17.8963 58.9097C20.5466 59.0397 23.2768 58.6297 25.5369 58.1198ZM22.8967 48.2915C24.0668 48.3414 26.127 48.4814 27.9471 48.6014C27.8171 47.8615 27.7171 47.1117 27.6371 46.3618C27.5271 45.302 27.4771 44.2421 27.4771 43.1823V43.0623L8.90564 36.7634C8.51561 37.6432 8.3256 38.5631 8.3256 39.4829C8.3256 40.6127 8.60562 41.7725 9.14566 42.8724C10.5858 44.912 12.846 46.2118 15.3061 47.0217C17.8563 47.8615 20.5966 48.1915 22.8967 48.2915ZM23.0468 38.2131C20.8366 37.5133 18.2764 36.4834 16.0462 35.0237C13.886 33.6039 12.0459 31.7642 11.1858 29.4246C10.9458 28.2048 10.9758 27.015 11.2758 25.9152L11.2858 25.8852C11.5258 25.0053 11.9459 24.1755 12.5459 23.4356L28.7372 34.3038C28.4572 35.2536 28.2272 36.2235 28.0371 37.2033C27.8771 38.0532 27.7471 38.913 27.6571 39.7729C25.927 39.183 24.0068 38.5231 23.0468 38.2131Z" fill="white"/>
<path fill-rule="evenodd" clip-rule="evenodd" d="M99.5028 32.4743C101.043 31.4245 102.823 30.2147 103.803 29.5848L103.903 29.5248L104.003 29.4648L104.103 29.4048L104.203 29.3448L104.303 29.2848L104.403 29.2248L104.503 29.1548L104.603 29.0848L104.703 29.0149L104.803 28.9449L104.903 28.8749L105.003 28.8049L105.103 28.7349L105.203 28.6649L105.303 28.5949L105.403 28.5249L105.503 28.455L105.603 28.385L105.703 28.315L105.803 28.245L105.903 28.175L106.003 28.105L106.103 28.025L106.203 27.945L106.303 27.865L106.403 27.7851L106.503 27.7051L106.603 27.6251L106.703 27.5451L106.803 27.4651L106.903 27.3851L107.003 27.3051L107.103 27.2252L107.203 27.1452L107.303 27.0652L107.403 26.9852L107.503 26.9052L107.603 26.8252L107.703 26.7452L107.803 26.6552L107.903 26.5653L108.003 26.4753L108.103 26.3853L108.203 26.2953L108.303 26.2053L108.403 26.1153L108.503 26.0254L108.603 25.9354L108.704 25.8454L108.804 25.7554L108.894 25.6654L108.984 25.5754L109.074 25.4854L109.164 25.3955L109.254 25.3055L109.344 25.2155L109.434 25.1255L109.524 25.0255L109.614 24.9255L109.704 24.8256L109.794 24.7256L109.884 24.6256L109.974 24.5256L110.064 24.4256C111.064 23.2858 111.944 22.036 112.574 20.6962L119.544 15.4671C120.304 16.217 120.864 17.0868 121.234 18.0467C121.675 19.2065 121.835 20.4863 121.715 21.8161V21.836C121.494 23.7457 120.214 24.9455 119.134 25.9654L119.104 25.9954C119.074 25.8454 119.034 25.6954 118.994 25.5454L118.984 25.5154C118.634 24.2356 117.974 23.0458 116.984 22.016C116.734 21.7561 116.334 21.7261 116.054 21.936L99.7128 32.9042C99.6028 32.7642 99.5528 32.6243 99.5028 32.4743ZM74.0408 113.791C73.8308 114.221 73.5507 114.631 73.2007 115.001C72.8507 115.371 72.4206 115.7 71.9106 116C71.3106 116 70.7805 115.92 70.2905 115.78C69.7904 115.64 69.3504 115.42 68.9604 115.151C69.9505 113.281 70.1005 110.851 69.8604 108.332C70.9005 110.651 72.2506 112.671 74.0408 113.791ZM77.6111 100.803C80.0812 103.123 82.8615 105.082 85.6317 105.282C85.6217 105.752 85.5617 106.292 85.4517 106.832C85.3317 107.442 85.1416 108.032 84.8816 108.522C84.3216 108.842 83.6415 109.112 82.9815 109.302L82.9515 109.312C82.5914 109.411 82.2314 109.491 81.9114 109.531C81.9114 106.592 79.9412 103.522 77.6111 100.803ZM87.0518 105.222C88.2519 105.032 89.452 104.472 90.6021 103.402C90.6821 103.323 90.7521 103.233 90.7921 103.113C92.1622 99.2132 90.262 96.4236 87.2418 94.354C87.4518 94.224 87.6618 94.084 87.8619 93.9341C88.1419 94.144 88.4219 94.344 88.7219 94.534C89.942 95.3138 91.3021 95.8937 92.6922 96.2037L92.8022 96.2237C94.3624 96.3437 95.8725 96.1237 97.2326 95.5638C98.5627 95.0239 99.7428 94.164 100.703 92.9742C100.913 92.7143 100.913 92.3443 100.713 92.0944L98.0727 88.6949C98.5127 88.425 98.9327 88.125 99.3228 87.7751C101.373 88.495 104.163 89.1349 105.783 88.8749L105.853 88.8649C107.373 88.515 108.753 87.8751 109.884 86.9552C110.994 86.0554 111.874 84.8856 112.454 83.4758C112.584 83.1559 112.464 82.7859 112.174 82.6059L107.823 79.8564C108.123 79.6164 108.413 79.3665 108.683 79.0965C108.904 78.8766 109.114 78.6366 109.304 78.3867C109.514 78.4766 109.744 78.5566 109.984 78.6166C111.754 79.1165 114.254 79.0965 115.994 78.2967L116.054 78.2667C117.444 77.5668 118.614 76.6169 119.484 75.4571L119.514 75.4171C120.354 74.2773 120.924 72.9476 121.144 71.4578C121.194 71.1079 120.984 70.7879 120.664 70.6879C120.044 70.488 118.494 69.7981 116.724 69.0182L115.614 68.5283C115.944 68.1384 116.244 67.7284 116.494 67.2885C119.194 67.2385 121.805 66.7286 123.465 65.3688L123.515 65.3188C124.675 64.279 125.555 63.0492 126.085 61.6894C126.615 60.3596 126.815 58.9099 126.635 57.4001C126.595 57.0402 126.285 56.7702 125.925 56.7802C124.865 56.7303 122.505 56.6203 119.734 56.5103C120.244 55.7704 120.644 54.9805 120.904 54.1507C123.115 53.5708 125.575 52.6809 126.875 51.0712L126.895 51.0512C127.825 49.7814 128.435 48.3916 128.685 46.9419C128.925 45.5321 128.825 44.0724 128.335 42.6326C128.215 42.2827 127.865 42.0927 127.515 42.1727C126.305 42.3626 123.965 42.6926 121.114 43.0825C121.364 42.5126 121.555 41.9327 121.685 41.3528C123.985 40.103 126.065 38.4133 127.025 36.1637L127.045 36.1237C127.575 34.6439 127.765 33.1342 127.595 31.6744C127.425 30.2547 126.915 28.8849 126.025 27.6351C125.835 27.3651 125.475 27.2652 125.175 27.3951L118.904 30.0047L118.974 29.8247L119.004 29.7247C119.134 29.0748 119.204 28.415 119.204 27.7751C119.444 27.5251 119.724 27.2551 120.014 26.9752C121.274 25.7954 122.765 24.3956 123.035 21.966V21.916C123.175 20.3663 122.995 18.8665 122.475 17.5168C121.965 16.187 121.124 14.9872 119.964 13.9874C119.704 13.7674 119.344 13.7674 119.084 13.9574L113.324 18.2766C113.434 17.8067 113.504 17.3168 113.544 16.8269C113.544 16.7769 113.544 16.7369 113.544 16.6869C113.524 16.4869 113.504 16.287 113.484 16.087C113.634 15.7771 113.814 15.4371 114.004 15.0872C114.854 13.5174 115.874 11.6377 115.704 9.05817C115.704 9.00818 115.694 8.95819 115.674 8.9082C115.354 7.38845 114.744 6.00868 113.854 4.86887C112.974 3.73906 111.834 2.83921 110.424 2.22931C110.144 2.10933 109.814 2.18932 109.624 2.40928L105.403 7.1085C105.383 6.65857 105.333 6.21865 105.253 5.76872L105.223 5.66874C104.753 4.27897 104.013 3.05917 103.043 2.07933C102.093 1.13949 100.923 0.429609 99.5428 0.0296757C99.2128 -0.0703077 98.8627 0.0896646 98.7127 0.399613L89.402 19.3065C89.262 19.5964 89.332 19.9364 89.562 20.1363C90.3821 20.8962 91.1621 21.6761 91.8822 22.4959C92.3022 22.9659 92.7122 23.4458 93.1023 23.9357C93.1323 23.9757 93.1623 24.0157 93.1923 24.0557L93.2023 24.0657C93.4523 24.3756 93.6923 24.6956 93.9323 25.0255L94.0923 25.2455C94.3824 25.6454 94.6624 26.0653 94.9424 26.4953L94.9624 26.5353C95.5625 27.4651 96.1125 28.425 96.6225 29.4148C96.9226 30.0147 97.2126 30.6146 97.4726 31.2345L97.4826 31.2545V31.2645L97.4926 31.2945V31.3045L97.5026 31.3245L97.5126 31.3545L97.5226 31.3845L97.5326 31.4045V31.4145L97.5526 31.4744L97.5626 31.5044V31.5144L97.5726 31.5344C97.7426 31.9444 97.9026 32.3543 98.0527 32.7642C98.2127 33.1942 98.3627 33.6341 98.4927 34.064L98.5227 34.044C98.5227 34.114 98.5327 34.174 98.5527 34.244C98.8827 35.3038 99.1527 36.3836 99.3628 37.4935C99.5628 38.5233 99.7028 39.5631 99.7928 40.6229L99.8128 40.9329C99.8528 41.4628 99.8828 42.0027 99.8928 42.5526V42.5726L99.9028 43.1925V43.2425C99.9028 44.2623 99.8528 45.2622 99.7528 46.232C99.6528 47.2518 99.4928 48.2517 99.2928 49.2415V49.2615L99.2528 49.4615C98.8927 51.1712 98.4827 52.5509 97.8326 54.2207L97.8226 54.2607C97.4226 55.2805 96.9626 56.2803 96.4525 57.2702C96.4125 57.3502 96.3925 57.4301 96.3825 57.5101L96.3325 57.4901L96.2725 57.6101C96.0525 58.02 95.8225 58.43 95.5825 58.8299V58.8399C95.5725 58.8599 95.5525 58.8899 95.5425 58.9099L95.5125 58.9599C94.9724 59.8597 94.3724 60.7496 93.7223 61.6194C93.0523 62.5193 92.3422 63.3791 91.6022 64.189C91.5321 64.259 91.4921 64.339 91.4621 64.429L91.4121 64.399C91.2021 64.6289 90.9821 64.8489 90.7721 65.0689C90.4721 65.3788 90.162 65.6788 89.852 65.9687C89.322 66.4686 88.7719 66.9486 88.2019 67.4185C87.5018 67.9884 86.7818 68.5383 86.0517 69.0582C85.4417 69.5481 84.2916 70.298 83.6415 70.7379C82.7215 71.3178 81.7914 71.8577 80.8513 72.3377C80.2913 72.6276 79.7112 72.8976 79.1312 73.1575L79.1012 73.0375C79.0312 72.7876 78.8411 72.5976 78.6011 72.5376C73.9808 71.3078 69.1904 70.6879 64.41 70.6879V72.0977C68.1603 72.0977 71.9006 72.4876 75.5709 73.2675C72.5207 74.4073 69.8604 76.6169 67.8403 79.5365C66.2902 81.7761 65.1101 84.4256 64.41 87.3352V94.134C64.8 94.134 65.1201 93.8141 65.1201 93.4242C65.1201 88.425 66.5802 83.8257 69.0004 80.3363C71.2606 77.0769 74.3608 74.7872 77.9011 74.0574C78.6311 76.9969 79.0712 80.2563 79.0712 83.4758C79.0712 87.4052 78.4111 91.2545 76.781 94.364C75.1809 97.4235 72.6407 99.7731 68.8604 100.783C67.5403 101.133 66.0601 101.323 64.4 101.323V102.743C65.4201 102.743 66.3802 102.673 67.2802 102.543C67.3302 102.743 67.3803 102.943 67.4303 103.143C68.8104 108.662 69.7704 115.53 64.39 117.02V118.46C64.45 118.46 64.5 118.45 64.56 118.44C66.1502 118.04 67.3102 117.32 68.1403 116.35C68.6603 116.7 69.2304 116.98 69.8704 117.16C70.5305 117.35 71.2606 117.45 72.0606 117.44C72.1806 117.44 72.3006 117.41 72.4206 117.35C73.1307 116.96 73.7207 116.5 74.2008 116C74.6608 115.52 75.0209 114.991 75.2909 114.431C76.491 114.851 77.8611 114.901 79.4312 114.451C79.5412 114.421 79.6412 114.361 79.7312 114.281C80.8113 113.231 81.4413 112.121 81.7214 110.981C82.2214 110.951 82.7715 110.851 83.3115 110.691L83.3515 110.681C84.1816 110.441 85.0416 110.081 85.7417 109.661C85.8417 109.601 85.9317 109.521 85.9917 109.411C86.3817 108.762 86.6518 107.942 86.8218 107.132C86.9718 106.462 87.0418 105.802 87.0518 105.222ZM85.7217 95.0839C85.5217 95.1539 85.3117 95.2138 85.1016 95.2738C83.7815 95.6238 82.3714 95.6338 80.9413 95.3438C80.8913 95.3338 80.8513 95.3238 80.8113 95.3138C79.9812 95.0039 79.2012 94.594 78.4911 94.104C78.3511 94.414 78.2111 94.7139 78.0511 95.0039C77.571 95.9137 77.021 96.7736 76.391 97.5535C80.2313 101.693 85.3617 106.122 89.512 102.503C90.5521 99.2432 88.6219 96.8636 85.7217 95.0839ZM74.4808 99.4732C73.0407 100.663 71.3106 101.573 69.2404 102.123L69.1904 102.133L69.3304 102.613C70.9005 108.072 73.5007 114.501 78.9011 113.111C82.8115 109.132 78.5411 103.662 74.5908 99.5731L74.4808 99.4732ZM73.2307 88.175C73.9008 88.175 74.5108 87.9051 74.9508 87.4651L74.9808 87.4351C75.4009 86.9952 75.6609 86.4053 75.6609 85.7454C75.6609 85.0755 75.3909 84.4656 74.9508 84.0257C74.5108 83.5858 73.9008 83.3158 73.2307 83.3158C72.8407 83.3158 72.5207 82.9959 72.5207 82.6059C72.5207 82.216 72.8407 81.8961 73.2307 81.8961C74.2908 81.8961 75.2609 82.326 75.9509 83.0259C76.651 83.7258 77.081 84.6856 77.081 85.7454C77.081 86.7852 76.671 87.7251 75.9909 88.425L75.9509 88.465C75.2509 89.1649 74.2908 89.5948 73.2307 89.5948C72.8407 89.5948 72.5207 89.2748 72.5207 88.8849C72.5207 88.495 72.8407 88.175 73.2307 88.175ZM79.0012 92.8242C80.0512 89.9547 80.5013 86.7153 80.5013 83.4458C80.5013 83.0959 80.4913 82.7459 80.4813 82.396L87.2318 92.6543C87.0618 92.7743 86.9018 92.8842 86.7418 92.9942L86.7518 93.0042C86.4017 93.2342 86.0417 93.4241 85.6717 93.5841C84.6916 94.034 83.7215 94.204 82.4814 94.114C82.0714 94.094 81.6614 94.0441 81.2513 93.9541C80.4513 93.6641 79.7012 93.2842 79.0012 92.8242ZM80.3013 79.5465C80.2713 79.2265 80.2313 78.9066 80.1913 78.5866C80.5713 79.1665 80.9113 79.6864 81.1513 80.0664C82.4414 82.106 84.1716 84.4356 86.2717 86.3153C88.4219 88.235 90.9521 89.7048 93.8023 89.9547C93.8523 89.9547 93.9023 89.9547 93.9523 89.9547C94.9424 89.8847 95.8825 89.6848 96.7626 89.3448L99.2327 92.5143C98.4927 93.2942 97.6326 93.8741 96.6925 94.264C95.5525 94.7339 94.2824 94.9139 92.9423 94.8239C91.7222 94.544 90.5421 94.034 89.472 93.3542C89.262 93.2142 89.0519 93.0742 88.8419 92.9242C88.8819 92.7343 88.8419 92.5243 88.7119 92.3543L80.3013 79.5465ZM79.6212 75.1872C79.5712 74.9672 79.5312 74.7473 79.4812 74.5373C80.1613 74.2373 80.8413 73.9174 81.5014 73.5774C82.3514 73.1375 83.1715 72.6776 83.9715 72.1877L99.3128 85.7154C98.7427 86.4953 98.0427 87.1152 97.2426 87.5751C96.2625 88.145 95.1224 88.465 93.8923 88.555C91.4021 88.325 89.152 87.0152 87.2218 85.2855C85.2416 83.5058 83.5915 81.2862 82.3514 79.3365C81.7614 78.3766 80.6313 76.6869 79.6212 75.1872ZM103.923 8.97819C104.053 8.01835 104.053 7.05851 103.893 6.09867C103.493 4.92886 102.873 3.90903 102.063 3.10916C101.413 2.45927 100.623 1.93936 99.7228 1.59941L90.9221 19.4864C91.6222 20.1563 92.3022 20.8562 92.9523 21.5761C93.4023 22.076 93.8323 22.5859 94.2424 23.1058L94.2724 23.1458L94.4024 23.3058L94.4224 23.3358L94.4424 23.3658L94.4624 23.3958L94.5124 23.4558L94.5324 23.4858L94.5524 23.5158L94.6124 23.4558L94.6724 23.3958L94.7324 23.3358L94.7924 23.2658L94.8524 23.1958L94.9124 23.1258L94.9724 23.0558L95.0324 22.9859L95.0924 22.9159L95.1524 22.8459L95.2124 22.7759L95.2724 22.7059L95.3324 22.6359L95.3925 22.5659L95.4525 22.4959L95.5125 22.426L95.5725 22.356L95.6325 22.286L95.6925 22.216L95.7525 22.146L95.8125 22.076L95.8725 22.006L95.9325 21.936L95.9925 21.866L96.0525 21.7961L96.1125 21.7261L96.1725 21.6561L96.2325 21.5861L96.2925 21.5161L96.3525 21.4561L96.4125 21.3961L96.4725 21.3361L96.5325 21.2761L96.5925 21.2162L96.6525 21.1562L96.7126 21.0962L96.7726 21.0362L96.8326 20.9762L96.8826 20.9162L96.9326 20.8562L96.9826 20.7962L97.0326 20.7362L97.0826 20.6762V20.6662L97.1326 20.6063L97.1826 20.5463L97.2326 20.4863L97.2826 20.4263L97.3326 20.3663L97.3826 20.3063L97.4326 20.2563L97.4826 20.2063L97.5326 20.1563L97.5826 20.1063L97.6326 20.0563L97.6826 20.0064L97.7326 19.9564L97.7726 19.9064L97.8126 19.8564L97.8526 19.8064L97.8926 19.7564L97.9327 19.7064L97.9726 19.6564L98.0126 19.6164L98.0727 19.5564L98.0827 19.5364L98.1227 19.4864L98.1527 19.4564L98.1827 19.4265L98.2227 19.3765L98.2327 19.3565L98.2927 19.2865L98.3527 19.2165L98.3627 19.1965L98.4027 19.1465L98.4327 19.1165L98.4627 19.0865L98.5027 19.0365L98.5127 19.0165L98.6227 18.8865L98.6327 18.8765L98.6427 18.8565L98.6927 18.8066L98.7227 18.7766L98.7527 18.7366L98.7927 18.6866L98.8127 18.6666L98.8727 18.5966L98.9327 18.5266L98.9427 18.5066L98.9927 18.4566L99.0927 18.3366L99.1127 18.3166L99.1727 18.2466L99.2327 18.1767L99.2928 18.1067L99.3228 18.0767L99.3528 18.0367L99.3928 17.9867L99.4128 17.9667L99.5328 17.8167L99.5428 17.7967L99.5928 17.7367L99.6228 17.7067L99.6528 17.6667C100.363 16.7669 101.063 15.7871 101.683 14.7572C102.763 12.9575 103.613 10.9979 103.893 8.99819L103.923 8.97819ZM110.824 12.9375C110.404 12.3476 109.884 11.8277 109.274 11.3878L108.683 12.0677L108.673 12.0777L108.663 12.0877L96.4425 26.1953C96.9726 27.0352 97.4526 27.895 97.9026 28.7749C98.2927 29.5448 98.6527 30.3246 98.9727 31.1145C100.453 30.1047 102.103 28.9849 103.023 28.395L103.113 28.335L103.203 28.275L103.293 28.215L103.383 28.155L103.473 28.095L103.563 28.035L103.653 27.975L103.933 27.7851L104.213 27.5851L104.303 27.5151L104.393 27.4451L104.483 27.3751L104.583 27.3051L104.773 27.1652L104.963 27.0252L105.063 26.9552L105.163 26.8852L105.263 26.8152L105.363 26.7452L105.553 26.5953L105.653 26.5253L105.753 26.4453L105.943 26.2953L106.043 26.2153L106.143 26.1353L106.233 26.0553L106.323 25.9754L106.413 25.8954L106.503 25.8154L106.593 25.7354L106.683 25.6554L106.773 25.5754L106.863 25.4954L107.053 25.3255L107.143 25.2455L107.233 25.1655L107.323 25.0855L107.413 24.9955L107.503 24.9055L107.593 24.8156L107.683 24.7256L107.773 24.6356L107.863 24.5456L107.953 24.4556L108.133 24.2756L108.223 24.1857L108.313 24.0957L108.403 24.0057L108.493 23.9157L108.583 23.8257L108.663 23.7357L108.743 23.6458L108.824 23.5558L108.904 23.4658C110.614 21.5261 111.914 19.2665 112.124 16.7769C112.104 16.5569 112.084 16.347 112.054 16.137C112.004 15.957 111.944 15.7171 111.884 15.4671C111.794 15.1072 111.704 14.7272 111.594 14.3973C111.524 14.2073 111.444 14.0273 111.354 13.8474L111.284 13.7274C111.144 13.4674 110.984 13.1975 110.824 12.9375ZM114.314 9.20815C114.044 7.90837 113.524 6.73856 112.764 5.75872C112.124 4.93886 111.314 4.25897 110.344 3.75906L105.283 9.38812C104.943 11.5278 104.053 13.5974 102.913 15.4871C102.143 16.7769 101.253 17.9767 100.363 19.0565L100.353 19.0765L100.133 19.3365L100.103 19.3765L100.053 19.4364L100.043 19.4564L99.9828 19.5264L99.9228 19.5964L99.9028 19.6164L99.8528 19.6664L99.8228 19.7064L99.6628 19.8864L99.6028 19.9564L99.5828 19.9764L99.5328 20.0264L99.5028 20.0663L99.4728 20.0963L99.4228 20.1463L99.4028 20.1663L99.3428 20.2363L99.2828 20.3063L99.2627 20.3263L99.2127 20.3763L99.1827 20.4063L99.1527 20.4363L99.1027 20.4863L99.0827 20.5063L99.0227 20.5763L98.9827 20.6163L98.9427 20.6562L98.9027 20.6962L98.8627 20.7362L98.8527 20.7462L98.8227 20.7862L98.8127 20.7962L98.7827 20.8362L98.7727 20.8462L98.7427 20.8862L98.7327 20.8962L98.7027 20.9362L98.6927 20.9462L98.6627 20.9862L98.6527 20.9962L98.6227 21.0362L98.6127 21.0562L98.5827 21.0962L98.5627 21.1162L98.5327 21.1462L98.5127 21.1662L98.4827 21.1962L98.4627 21.2162L98.4327 21.2462L98.4127 21.2661L98.3827 21.2961V21.3261L98.3527 21.3561L98.3227 21.3861L98.2927 21.4161L98.2627 21.4461L98.2427 21.4761L98.2127 21.5061L98.1927 21.5361L98.1627 21.5761L98.1427 21.5961L98.1127 21.6361L98.0927 21.6561L98.0527 21.6961L98.0327 21.7161L97.9927 21.7561L97.9726 21.7761L97.9327 21.8261L97.9126 21.846L97.8126 21.966L97.8026 21.976L97.7526 22.026L97.7426 22.036L97.6926 22.096L97.6826 22.106L97.6326 22.166L97.6226 22.176L97.5726 22.236V22.246L97.5126 22.316L97.4526 22.386L97.3926 22.4559L97.3326 22.5259L97.2726 22.5959V22.6059L97.2126 22.6759L97.2026 22.6659L97.1426 22.7259L97.1326 22.7359L97.0826 22.7959L97.0726 22.8059L97.0226 22.8659L97.0126 22.8759L96.9626 22.9359L96.9526 22.9559L96.9026 23.0159L96.8826 23.0359L96.8326 23.0858L96.8126 23.1058L96.7726 23.1558L96.7526 23.1758L96.7126 23.2258L96.6925 23.2558L96.6525 23.3058L96.6225 23.3358L96.5825 23.3758L96.4925 23.4858L96.4625 23.5258L96.4325 23.5658L96.3825 23.6058L96.3525 23.6458L96.3225 23.6757L96.2825 23.7157L96.2525 23.7457L96.2125 23.7857L96.1825 23.8157L96.1425 23.8657L96.1225 23.8957L96.0825 23.9457L96.0625 23.9757L96.0225 24.0257L96.0025 24.0457L95.9525 24.0957L95.9325 24.1157L95.8825 24.1657L95.8625 24.1857L95.8125 24.2457L95.8025 24.2656L95.7525 24.3256L95.7425 24.3356L95.6925 24.3956L95.6825 24.4056L95.6325 24.4656L95.6225 24.4756L95.5625 24.5356L95.5525 24.5456L95.4925 24.6156L95.4325 24.6856L95.6325 24.9655L98.8227 21.2761L107.583 11.1578L107.873 10.8279C107.883 10.8179 107.893 10.8079 107.903 10.7979L108.593 9.99802C108.814 9.74806 109.194 9.67807 109.494 9.85804C110.724 10.5979 111.674 11.5778 112.354 12.7276C112.444 12.8775 112.524 13.0375 112.604 13.1975C112.734 13.4274 112.844 13.6774 112.934 13.9374L112.974 14.0473C113.694 12.7276 114.434 11.1578 114.314 9.20815ZM117.954 31.9644C116.864 33.6641 115.304 35.0639 113.574 36.2037C111.214 37.7634 108.523 38.8432 106.233 39.5631C105.053 39.933 103.043 40.6329 101.313 41.2228L101.333 41.5728L120.074 35.2238C120.394 35.1138 120.754 35.2438 120.924 35.5538C121.615 36.8036 121.935 38.1333 121.935 39.4831V39.6231C123.615 38.5833 125.045 37.2735 125.755 35.6538C126.205 34.384 126.375 33.0942 126.225 31.8544C126.105 30.8446 125.775 29.8547 125.215 28.9449L117.954 31.9644ZM120.064 44.6723C123.065 44.2623 125.665 43.9024 127.195 43.6724C127.465 44.7023 127.495 45.7321 127.325 46.7319C127.115 47.9617 126.585 49.1515 125.785 50.2413C124.855 51.3811 123.055 52.111 121.274 52.6309C121.384 51.7011 121.324 50.7512 121.094 49.7814C121.014 49.4415 120.704 49.2215 120.364 49.2415L100.523 50.4613C100.553 50.3213 100.583 50.1913 100.613 50.0514C102.543 49.9214 104.843 49.7614 105.993 49.7114C108.413 49.6114 111.294 49.2715 113.964 48.3916C116.284 47.6118 118.454 46.442 120.064 44.6723ZM118.514 57.9001C121.334 58.01 123.885 58.12 125.305 58.19C125.355 59.2498 125.175 60.2697 124.805 61.1995C124.345 62.3493 123.595 63.3991 122.595 64.299C121.334 65.3188 119.334 65.7687 117.174 65.8787C117.454 65.0889 117.604 64.239 117.624 63.3492C117.634 62.9992 117.384 62.7093 117.054 62.6393L97.2926 58.7099L97.4826 58.37C99.4328 58.7599 101.843 59.2398 102.993 59.4998C105.343 60.0297 108.213 60.4596 111.024 60.3097C113.724 60.1697 116.384 59.4998 118.514 57.9001ZM91.9022 65.9187C92.0422 65.7787 92.1722 65.6388 92.3122 65.4988L92.4422 65.5588C94.2224 66.4286 96.5125 67.5484 97.6526 68.1483C99.7928 69.2682 102.453 70.408 105.223 70.9779C108.043 71.5578 110.964 71.5578 113.564 70.338L113.654 70.288C113.974 70.078 114.274 69.8581 114.554 69.6181L116.174 70.328C117.574 70.9479 118.844 71.5078 119.664 71.8377C119.434 72.8676 119.004 73.7874 118.404 74.5973L118.374 74.6373C117.624 75.6271 116.624 76.437 115.434 77.0369L115.414 77.0469C113.984 77.7068 111.884 77.7068 110.384 77.2868C110.284 77.2568 110.184 77.2268 110.094 77.1968C110.354 76.7069 110.564 76.177 110.724 75.6071C110.824 75.2572 110.634 74.8972 110.304 74.7572L91.9022 65.9187ZM85.1516 71.3378L85.4017 71.1778H85.4117L85.8317 71.5378C87.3218 72.8076 89.212 74.4173 90.172 75.2872C91.9622 76.8969 94.2624 78.6666 96.7926 79.9064C99.3828 81.1762 102.213 81.8961 105.023 81.3661C105.063 81.3562 105.113 81.3462 105.153 81.3262C105.633 81.1562 106.093 80.9562 106.523 80.7263L110.904 83.4958C110.424 84.4456 109.774 85.2355 108.994 85.8754C108.033 86.6553 106.863 87.2052 105.553 87.4951C104.313 87.6851 102.153 87.2252 100.373 86.6453C100.543 86.4253 100.703 86.1853 100.853 85.9454C101.033 85.6454 100.973 85.2655 100.713 85.0455L85.1516 71.3378ZM86.7418 70.458L86.6318 70.368L86.8718 70.188C87.6418 69.6481 88.3919 69.0782 89.112 68.4783C89.692 67.9984 90.272 67.4885 90.8321 66.9585L109.174 75.7671C108.833 76.6769 108.323 77.4568 107.683 78.1167C106.883 78.9266 105.873 79.5564 104.713 79.9664C102.253 80.4163 99.7328 79.7664 97.4126 78.6266C95.0224 77.4568 92.8323 75.7671 91.1121 74.2173C90.172 73.3875 88.2619 71.7578 86.7418 70.458ZM98.3027 66.8986C97.1926 66.3287 95.0424 65.2688 93.2923 64.409C93.8523 63.7591 94.3824 63.0992 94.8824 62.4393C95.4625 61.6594 96.0225 60.8496 96.5425 59.9997L116.184 63.8991C116.084 64.8589 115.784 65.7487 115.324 66.5486C114.754 67.5385 113.934 68.3883 112.904 69.0782C110.634 70.128 108.033 70.118 105.503 69.5881C102.893 69.0582 100.353 67.9584 98.3027 66.8986ZM103.303 58.12C102.093 57.8501 99.9728 57.4201 98.1627 57.0602C98.5227 56.3103 98.8627 55.5404 99.1727 54.7506L99.1827 54.7206C99.5428 53.7907 99.8628 52.8509 100.133 51.8911L119.824 50.6813C119.974 51.6311 119.904 52.5709 119.664 53.4608C119.364 54.5606 118.794 55.5904 117.984 56.5203C116.054 58.12 113.534 58.7699 110.944 58.9099C108.293 59.0399 105.553 58.6299 103.303 58.12ZM105.943 48.2917C104.773 48.3416 102.713 48.4816 100.893 48.6016C101.023 47.8617 101.123 47.1118 101.203 46.362C101.313 45.3022 101.363 44.2423 101.363 43.1825V43.0625L119.934 36.7736C120.324 37.6534 120.514 38.5733 120.514 39.4931C120.514 40.6229 120.234 41.7827 119.694 42.8826C118.254 44.9222 115.994 46.222 113.534 47.0319C110.984 47.8617 108.243 48.1917 105.943 48.2917ZM105.793 38.2133C108.003 37.5135 110.564 36.4836 112.794 35.0239C114.954 33.6041 116.794 31.7644 117.654 29.4248C117.894 28.205 117.864 27.0152 117.564 25.9154L117.554 25.8854C117.314 25.0055 116.894 24.1757 116.294 23.4358L100.103 34.304C100.383 35.2538 100.613 36.2237 100.803 37.2035C100.963 38.0534 101.093 38.9132 101.183 39.7731C102.913 39.1832 104.823 38.5233 105.793 38.2133Z" fill="white"/>
<path fill-rule="evenodd" clip-rule="evenodd" d="M64.42 8.44826H42.7183V7.94834L51.1189 8.05833C48.1587 7.84836 45.1084 7.70838 42.7183 7.33844V4.90885L45.4185 5.43876C44.4784 5.1888 43.5083 4.89885 42.7183 4.50892V2.42926C49.1588 6.60857 62.5798 2.74921 64.42 8.44826Z" fill="white"/>
<path fill-rule="evenodd" clip-rule="evenodd" d="M64.42 8.44826H86.1217V7.94834L77.7211 8.05833C80.6813 7.84836 83.7316 7.70838 86.1217 7.33844V4.90885L83.4215 5.43876C84.3616 5.1888 85.3317 4.89885 86.1217 4.50892V2.42926C79.6812 6.60857 66.2602 2.74921 64.42 8.44826Z" fill="white"/>
<path fill-rule="evenodd" clip-rule="evenodd" d="M86.1218 19.4364C92.8823 25.1555 97.1426 33.4941 97.1426 42.7925C97.1426 55.5004 89.172 66.4386 77.7411 71.2978C76.881 71.0878 76.011 70.8879 75.1509 70.7179C79.3712 69.2281 83.1515 66.8885 86.2718 63.909C91.7922 58.6499 95.2325 51.4011 95.3325 43.3925C95.7225 43.3125 96.0725 43.1225 96.3526 42.8425C96.7126 42.4826 96.9326 41.9827 96.9326 41.4428C96.9326 40.8929 96.7126 40.393 96.3526 40.033C96.0325 39.7131 95.5925 39.4931 95.1125 39.4531C94.7324 36.4536 93.8824 33.5941 92.6223 30.9445C90.8121 27.1152 88.1819 23.7257 84.9317 20.9762C84.8717 20.9162 84.7817 20.8762 84.6817 20.8762H44.1485C44.0685 20.8762 43.9885 20.9062 43.9185 20.9562C40.6582 23.7057 38.018 27.1052 36.2078 30.9445C34.9578 33.5941 34.1077 36.4536 33.7177 39.4531C33.2376 39.4931 32.8076 39.7031 32.4876 40.023C32.1275 40.383 31.9075 40.8829 31.9075 41.4328C31.9075 41.9827 32.1275 42.4826 32.4876 42.8425C32.7576 43.1125 33.1076 43.3025 33.4876 43.3825C33.5776 51.3911 37.0279 58.6399 42.5483 63.909C45.6686 66.8885 49.4489 69.2281 53.6692 70.7179C52.7992 70.8879 51.9391 71.0878 51.079 71.2978C39.6481 66.4286 31.6775 55.5004 31.6775 42.7925C31.6775 33.4941 35.9378 25.1555 42.6984 19.4364H86.1218ZM91.9822 31.2645C90.2321 27.5651 87.6919 24.2756 84.5516 21.6061H44.2785C41.1482 24.2756 38.598 27.5651 36.8479 31.2645C35.6278 33.844 34.7977 36.6236 34.4277 39.5331C34.7677 39.6231 35.0678 39.803 35.2978 40.043C35.6578 40.4029 35.8778 40.9029 35.8778 41.4528C35.8778 42.0027 35.6578 42.4926 35.2978 42.8525C35.0078 43.1425 34.6277 43.3425 34.1977 43.4124C34.2977 51.2211 37.658 58.28 43.0384 63.4091C46.3786 66.5986 50.509 69.0382 55.1193 70.458C57.2395 70.098 59.3897 69.858 61.5298 69.7481H61.5698H61.6098H61.6498H61.6898H61.7299H61.7699H61.8199H61.8599H61.8999H61.9399H62.0299H62.0699H62.1099H62.1499H62.1899H62.2299H62.2699H62.3199H62.3599H62.3999H62.4499H62.4899H62.5299H62.5699H62.6099H62.6499H62.6799H62.6899H62.6999H62.7299H62.7399H62.7499H62.7799H62.7999H62.8199H62.8499H62.8699H62.8799H62.9099H62.9199H62.9399H62.9699H62.99H63.0099H63.04H63.06H63.07H63.1H63.11H63.13H63.16H63.18H63.2H63.23H63.25H63.26H63.29H63.3H63.31H63.34H63.36H63.38H63.41H63.43H63.44H63.47H63.48H63.49H63.52H63.53H63.55H63.57H63.6H63.62H63.63H63.66H63.67H63.68H63.71H63.72H63.74H63.77H63.8H63.82H63.83H63.86H63.87H63.88H63.91H63.92H63.94H63.97H63.99H64.01H64.02H64.05H64.06H64.07H64.1H64.11H64.13H64.16H64.18H64.2H64.23H64.2401H64.2501H64.2801H64.2901H64.3101H64.3401H64.3601H64.3801H64.4101H64.4301H64.4401H64.4701H64.4801H64.5001H64.5301H64.5501H64.5701H64.6001H64.6101H64.6201H64.6501H64.6601H64.6801H64.7101H64.7301H64.7501H64.7801H64.7901H64.8001H64.8101H64.8201H64.8301H64.8401H64.8501H64.8601H64.8701H64.8801H64.8901H64.9001H64.9101H64.9201H64.9301H64.9401H64.9501H64.9601H64.9701H64.9801H64.9901H65.0001H65.0101H65.0201H65.0301H65.0401H65.0501H65.0601H65.0701H65.0801H65.0901H65.1001H65.1101H65.1201H65.1301H65.1401H65.1501H65.1601H65.1701H65.1801H65.1901H65.2001H65.2101H65.2201H65.2301H65.2401H65.2501H65.2601H65.2701H65.2801H65.2901H65.3101H65.3201H65.3401H65.3501C68.1404 69.7981 70.9206 70.058 73.6708 70.5279C78.2812 69.1082 82.4115 66.6686 85.7517 63.4791C91.1322 58.35 94.4924 51.2911 94.5924 43.4824C94.1724 43.4124 93.7924 43.2125 93.5023 42.9225C93.1423 42.5626 92.9223 42.0627 92.9223 41.5128C92.9223 40.9629 93.1423 40.4629 93.5023 40.103C93.7424 39.863 94.0324 39.6931 94.3624 39.5931C94.0324 36.6236 93.2023 33.834 91.9822 31.2645ZM43.7984 40.113L44.6985 37.6534C44.8985 37.0435 45.1885 36.6036 45.5786 36.3536C45.9586 36.1037 46.4987 35.9837 47.2087 35.9837H60.2397L54.5693 45.1022C54.2593 45.6421 53.7792 46.402 53.1492 47.3818C50.359 51.7711 48.9589 54.7706 48.9589 56.4003C48.9589 57.6601 49.2989 58.6199 49.9889 59.2898C50.669 59.9597 51.6591 60.2996 52.9492 60.2996C54.2493 60.2996 55.2693 59.9697 56.0194 59.3098C56.7595 58.6499 57.1395 57.7501 57.1395 56.6102C57.1395 56.0303 56.8595 55.0705 56.3094 53.7607C55.7594 52.4509 55.4794 51.3311 55.4794 50.4013C55.4794 49.0915 55.7594 47.6717 56.3394 46.142C56.9195 44.6123 57.9396 42.6326 59.3797 40.213L64.15 32.2143V30.2846H45.6786L42.4283 40.123H43.7984V40.113ZM62.9799 59.6097H84.4316L84.8717 49.6814H83.4316L83.1515 52.241C83.0915 52.8409 82.9015 53.2508 82.5815 53.4808C82.2615 53.7007 81.6914 53.8207 80.8714 53.8207H67.9703V53.4908L76.111 48.4316C79.2312 46.4719 81.4814 44.6222 82.8715 42.8725C84.2616 41.1328 84.9517 39.3131 84.9517 37.4134C84.9517 35.0238 84.0216 33.1442 82.1615 31.7544C80.3013 30.3646 77.7611 29.6847 74.5209 29.6847C71.4506 29.6847 68.9204 30.3846 66.9503 31.7844C64.9801 33.1742 64 34.9339 64 37.0535C64 38.3833 64.3701 39.4531 65.0901 40.273C65.8202 41.0928 66.7902 41.5028 67.9903 41.5028C68.9504 41.5028 69.7305 41.2128 70.3105 40.6229C70.8906 40.043 71.1906 39.2631 71.1906 38.2933C71.1906 37.3035 70.8506 36.5236 70.1905 35.9637C69.5205 35.4038 68.6004 35.1138 67.4303 35.1138H67.1503C66.8603 35.1138 66.6402 35.0738 66.5102 34.9838C66.3702 34.9039 66.3002 34.7639 66.3002 34.5739C66.3002 33.964 66.8303 33.2941 67.8903 32.5643C68.9504 31.8344 70.1205 31.4744 71.4006 31.4744C73.3008 31.4744 74.7809 32.0843 75.831 33.3141C76.891 34.5339 77.4111 36.2436 77.4111 38.4333C77.4111 40.5029 76.901 42.3926 75.891 44.1223C74.8809 45.852 73.2708 47.5718 71.0606 49.2815L62.99 55.5704V59.6097H62.9799ZM33.9077 40.143C33.1876 40.143 32.6076 40.7229 32.6076 41.4428C32.6076 42.1627 33.1876 42.7426 33.9077 42.7426C34.6277 42.7426 35.2078 42.1627 35.2078 41.4428C35.2078 40.7229 34.6277 40.143 33.9077 40.143ZM94.9425 40.133C94.2224 40.133 93.6324 40.7229 93.6324 41.4428C93.6324 42.1627 94.2224 42.7526 94.9425 42.7526C95.6625 42.7526 96.2526 42.1627 96.2526 41.4428C96.2526 40.7229 95.6725 40.133 94.9425 40.133ZM64.9501 69.6781H64.9701H64.9801H64.9901H65.0001H65.0101H65.0201H65.0301H65.0401H65.0501H65.0601H65.0701H65.0801H65.0901H65.1001H65.1101H65.1201H65.1301H65.1401H65.1501H65.1601H65.1701H65.1801H65.1901H65.2001H65.2101H65.2201H65.2301H65.2401H65.2501H65.2601H65.2701H65.2801H65.2701H65.2601H65.2501H65.2401H65.2301H65.2201H65.2101H65.2001H65.1801H65.1701H65.1601H65.1501H65.1401H65.1301H65.1201H65.1101H65.1001H65.0901H65.0801H65.0701H65.0601H65.0501H65.0401H65.0301H65.0201H65.0101H65.0001H64.9901H64.9801H64.9701H64.9601H64.9501ZM64.8201 69.6781H64.8401H64.8501H64.8601H64.8701H64.8801H64.8901H64.9001H64.9101H64.9201H64.9301H64.9401H64.9501H64.9601H64.9701H64.9601H64.9501H64.9401H64.9301H64.9201H64.9101H64.9001H64.8801H64.8701H64.8601H64.8501H64.8401H64.8301H64.8201Z" fill="#F7A600"/>
<path fill-rule="evenodd" clip-rule="evenodd" d="M50.1688 17.1569H47.3086V16.7469H47.8186C48.0187 16.7469 48.1487 16.7069 48.2087 16.617C48.2387 16.567 48.2487 16.477 48.2487 16.337V11.7878H48.1987L46.4085 17.1569H46.1785L44.1684 11.7878H44.1184V15.9871C44.1184 16.287 44.1784 16.487 44.2984 16.587C44.4184 16.6869 44.6384 16.7469 44.9384 16.7469H45.0584V17.1569H42.6982V16.7469H42.8283C43.0883 16.7469 43.2783 16.7069 43.3983 16.617C43.5583 16.497 43.6483 16.287 43.6483 15.9871V12.0277C43.6483 11.8777 43.6383 11.7878 43.6183 11.7478C43.5683 11.6578 43.4283 11.6178 43.2183 11.6178H42.7082V11.2079H44.8484L46.4385 15.5171H46.4685L47.9187 11.2079H50.1588V11.6178H49.6488C49.4488 11.6178 49.3188 11.6578 49.2588 11.7478C49.2288 11.7978 49.2188 11.8877 49.2188 12.0277V16.337C49.2188 16.487 49.2288 16.577 49.2488 16.617C49.2988 16.7069 49.4288 16.7469 49.6388 16.7469H50.1488V17.1569H50.1688ZM56.3493 15.4272C56.3493 16.117 55.9993 16.607 55.2892 16.8869C54.8292 17.0669 54.2492 17.1569 53.5291 17.1569H50.7989V16.7469H51.3089C51.5089 16.7469 51.6389 16.7069 51.6989 16.617C51.729 16.567 51.739 16.477 51.739 16.337V12.0277C51.739 11.8777 51.729 11.7878 51.709 11.7478C51.6589 11.6578 51.5289 11.6178 51.3189 11.6178H50.8089V11.2079H55.8493V13.1975H55.4092C55.3492 12.5176 55.1392 12.0677 54.7792 11.8378C54.5492 11.6878 54.1691 11.6178 53.6491 11.6178H53.1591C52.959 11.6178 52.829 11.6578 52.769 11.7478C52.739 11.7978 52.729 11.8877 52.729 12.0277V13.6475H53.7391C54.7092 13.6475 55.4192 13.8574 55.8693 14.2873C56.1893 14.5973 56.3493 14.9772 56.3493 15.4272ZM55.2492 15.4272C55.2492 14.8473 54.9892 14.4473 54.4792 14.2374C54.1891 14.1174 53.8191 14.0574 53.3591 14.0574H52.719V16.337C52.719 16.487 52.729 16.577 52.749 16.617C52.799 16.7069 52.929 16.7469 53.1391 16.7469H53.5591C54.1091 16.7469 54.5392 16.597 54.8492 16.307C55.1192 16.0671 55.2492 15.7671 55.2492 15.4272ZM62.5098 14.1774C62.5098 14.9372 62.2798 15.6171 61.8097 16.227C61.2697 16.9269 60.5696 17.2769 59.7096 17.2769C58.8495 17.2769 58.1495 16.9269 57.6094 16.237C57.1394 15.6271 56.8994 14.9472 56.8994 14.1774C56.8994 13.4075 57.1394 12.7276 57.6094 12.1177C58.1495 11.4278 58.8495 11.0779 59.7096 11.0779C60.5696 11.0779 61.2697 11.4278 61.7997 12.1177C62.2698 12.7376 62.5098 13.4175 62.5098 14.1774ZM61.4097 14.1774C61.4097 13.2975 61.2397 12.6176 60.8997 12.1377C60.5996 11.7078 60.1996 11.4878 59.7096 11.4878C59.2395 11.4878 58.8395 11.7078 58.5295 12.1377C58.1795 12.6176 57.9994 13.2975 57.9994 14.1774C57.9994 15.0672 58.1695 15.7571 58.5195 16.227C58.8295 16.657 59.2295 16.8669 59.7096 16.8669C60.1496 16.8669 60.5196 16.6869 60.8097 16.337C61.2097 15.8771 61.4097 15.1572 61.4097 14.1774ZM69.2103 11.6178H68.9603C68.8003 11.6178 68.6503 11.7078 68.5103 11.8977C68.4303 11.9977 68.3603 12.1277 68.2903 12.2877L66.6301 16.287C66.4601 16.6869 66.2301 16.9669 65.9501 17.1169C65.75 17.2269 65.5 17.2769 65.19 17.2769C64.76 17.2769 64.4299 17.1269 64.1999 16.8169C63.9999 16.557 63.8999 16.257 63.8999 15.9171C63.8999 15.7171 63.9799 15.5671 64.1499 15.4572C64.2799 15.3772 64.4199 15.3372 64.58 15.3372C64.73 15.3372 64.86 15.3972 64.96 15.5071C65.06 15.6171 65.11 15.7471 65.11 15.8971C65.11 16.0171 65.08 16.117 65.03 16.207C64.98 16.297 64.9 16.367 64.79 16.427C64.7 16.487 64.66 16.517 64.66 16.527C64.66 16.607 64.7 16.6769 64.79 16.7569C64.91 16.8569 65.05 16.9069 65.22 16.9069C65.48 16.9069 65.7 16.8169 65.8801 16.637C66.0301 16.487 66.1401 16.297 66.2001 16.0571L64.1199 12.1377C64.0299 11.9577 63.8999 11.8278 63.7499 11.7478C63.5999 11.6678 63.3899 11.6278 63.1298 11.6278H63.0198V11.2179H65.8901V11.6278H65.7401C65.53 11.6278 65.37 11.6378 65.26 11.6678C65.15 11.6978 65.1 11.7678 65.1 11.8877C65.1 11.9077 65.1 11.9377 65.11 11.9777C65.12 12.0177 65.12 12.0477 65.14 12.0777L66.6301 15.0272H66.6701L67.6902 12.4676C67.7202 12.4077 67.7402 12.3377 67.7602 12.2777C67.7802 12.2177 67.7902 12.1477 67.8102 12.0777V11.9477C67.7902 11.8078 67.7202 11.7178 67.6202 11.6778C67.5102 11.6378 67.3802 11.6178 67.2102 11.6178H67.0501V11.2079H69.2003V11.6178H69.2103ZM76.6109 15.1172C76.4709 15.9671 76.1509 16.567 75.6408 16.9169C75.2808 17.1669 74.8408 17.2868 74.3107 17.2868C73.3906 17.2868 72.6806 16.9469 72.1606 16.277C71.7005 15.6771 71.4805 14.9472 71.4805 14.0574C71.4805 13.2475 71.7205 12.5576 72.1906 11.9977C72.7006 11.3878 73.3806 11.0779 74.2307 11.0779C74.5807 11.0779 74.9008 11.1379 75.2008 11.2579C75.3808 11.3278 75.5608 11.4278 75.7308 11.5578L75.9509 11.2079H76.3509L76.4809 13.3475H76.0609C75.9309 12.7376 75.7308 12.2777 75.4608 11.9777C75.1708 11.6578 74.7708 11.4978 74.2707 11.4978C73.7707 11.4978 73.3806 11.6878 73.0906 12.0577C72.7506 12.4876 72.5806 13.1475 72.5806 14.0374C72.5806 14.8972 72.7306 15.5871 73.0406 16.107C73.3507 16.617 73.8007 16.8769 74.3807 16.8769C74.9308 16.8769 75.3808 16.667 75.7008 16.257C75.9408 15.9571 76.0909 15.5771 76.1609 15.1172H76.6109ZM86.5417 17.1569H77.241V16.7469H77.751C77.951 16.7469 78.081 16.7069 78.141 16.617C78.171 16.567 78.181 16.477 78.181 16.337V12.0277C78.181 11.8777 78.171 11.7878 78.151 11.7478C78.101 11.6578 77.971 11.6178 77.761 11.6178H77.251V11.2079H80.1112V11.6178H79.6011C79.4011 11.6178 79.2711 11.6578 79.2111 11.7478C79.1811 11.7978 79.1711 11.8877 79.1711 12.0277V16.337C79.1711 16.487 79.1811 16.577 79.2011 16.617C79.2511 16.7069 79.3811 16.7469 79.5911 16.7469H80.9712C81.1713 16.7469 81.3013 16.7069 81.3613 16.617C81.3913 16.567 81.4013 16.477 81.4013 16.337V12.0277C81.4013 11.8777 81.3913 11.7878 81.3713 11.7478C81.3213 11.6578 81.1913 11.6178 80.9812 11.6178H80.6512V11.2079H83.1614V11.6178H82.8214C82.6214 11.6178 82.4914 11.6578 82.4314 11.7478C82.4014 11.7978 82.3914 11.8877 82.3914 12.0277V16.337C82.3914 16.487 82.4014 16.577 82.4214 16.617C82.4714 16.7069 82.6014 16.7469 82.8114 16.7469H84.1915C84.3915 16.7469 84.5215 16.7069 84.5815 16.617C84.6115 16.567 84.6215 16.477 84.6215 16.337V12.0277C84.6215 11.8777 84.6115 11.7878 84.5915 11.7478C84.5415 11.6578 84.4115 11.6178 84.2015 11.6178H83.6915V11.2079H86.5517V11.6178H86.0416C85.8416 11.6178 85.7116 11.6578 85.6516 11.7478C85.6216 11.7978 85.6116 11.8877 85.6116 12.0277V16.337C85.6116 16.487 85.6216 16.577 85.6516 16.617C85.7016 16.7069 85.8316 16.7469 86.0416 16.7469H86.5517V17.1569H86.5417Z" fill="white"/>
</g>
<defs>
<clipPath id="clip0">
<rect width="128.84" height="118.44" fill="white"/>
</clipPath>
</defs>
</svg>
